# xmcd CD database file
#
# Track frame offsets:
#	150
#	21486
#	38742
#	56493
#	71537
#	86609
#	104317
#	117090
#	130007
#	147835
#	163795
#	180538
#	193642
#	215314
#	228726
#	239882
#	254786
#	268135
#
# Disc length: 3829 seconds
#
# Revision: 0
# Processed by: cddbd v1.5.1PL0 Copyright (c) Steve Scherf et al.
# Submitted via: CDex 1.51
#
DISCID=0f0ef312
DTITLE=Brian Crain - Live In Korea: Solo Piano
DYEAR=2002
DGENRE=New Age
TTITLE0=A walk In The Forest
TTITLE1=Fly Away
TTITLE2=Sunshine And Blossoms
TTITLE3=Morning Light
TTITLE4=White Dove
TTITLE5=Break In The Clouds
TTITLE6=Sunrise
TTITLE7=Voice From The Past
TTITLE8=Northern Lights
TTITLE9=Across The Bay
TTITLE10=Gentle Rain
TTITLE11=Kindred Spirits
TTITLE12=Northern  Sky
TTITLE13=Innocent Heart
TTITLE14=Broken Shadows
TTITLE15=Moonrise
TTITLE16=Dancing By Starlight
TTITLE17=Butterfly Waltz
EXTD=YEAR: 2002
EXTT0=
EXTT1=
EXTT2=
EXTT3=
EXTT4=
EXTT5=
EXTT6=
EXTT7=
EXTT8=
EXTT9=
EXTT10=
EXTT11=
EXTT12=
EXTT13=
EXTT14=
EXTT15=
EXTT16=
EXTT17=
PLAYORDER=
